<svg width="178" height="44" viewBox="0 0 178 44" fill="none" xmlns="http://www.w3.org/2000/svg">
<path d="M76.2495 33.8104C74.0248 33.8104 72.1034 33.2888 70.4854 32.2456C68.8674 31.1791 67.6202 29.7534 66.7438 27.9684C65.8899 26.1833 65.4629 24.2012 65.4629 22.022C65.4629 19.8427 65.8899 17.8606 66.7438 16.0756C67.6202 14.2905 68.8674 12.8764 70.4854 11.8331C72.1034 10.7667 74.0248 10.2335 76.2495 10.2335C77.9349 10.2335 79.4518 10.5465 80.8001 11.1724C82.1485 11.7752 83.2945 12.6098 84.2384 13.6762C85.1822 14.7426 85.8901 15.9828 86.362 17.397H83.699C83.1372 15.9828 82.2496 14.8585 81.0361 14.0239C79.8226 13.1893 78.2945 12.772 76.4518 12.772C74.6541 12.772 73.1147 13.1893 71.8337 14.0239C70.5754 14.8353 69.6202 15.9365 68.9685 17.3275C68.3169 18.7184 67.991 20.2833 67.991 22.022C67.991 23.7374 68.3169 25.3023 68.9685 26.7165C69.6202 28.1075 70.5754 29.2202 71.8337 30.0548C73.1147 30.8661 74.6541 31.2719 76.4518 31.2719C78.2945 31.2719 79.8226 30.8546 81.0361 30.02C82.2496 29.1855 83.1372 28.0611 83.699 26.6469H86.362C85.8901 28.0379 85.1822 29.2782 84.2384 30.3678C83.2945 31.4342 82.1485 32.2804 80.8001 32.9063C79.4518 33.509 77.9349 33.8104 76.2495 33.8104ZM90.1517 33.5322V10.5117H92.6799V20.7353H105.658V10.5117H108.186V33.5322H105.658V23.2738H92.6799V33.5322H90.1517ZM111.026 33.5322L120.498 10.5117H123.667L133.139 33.5322H130.341L127.611 26.8556H116.554L113.824 33.5322H111.026ZM117.532 24.4562H126.633L122.082 13.2241L117.532 24.4562ZM139.527 33.5322V12.9807H131.74V10.5117H149.842V12.9807H142.055V33.5322H139.527Z" fill="white"/>
<path d="M0.0683594 33.5322L4.78751 9.19031H17.2933C20.1022 9.19031 22.2147 9.70034 23.6304 10.7204C25.0461 11.7172 25.754 13.143 25.754 14.9976C25.754 16.5045 25.327 17.7795 24.4731 18.8228C23.6416 19.866 22.4843 20.6658 21.0012 21.2222C19.5405 21.7553 17.8551 22.022 15.9449 22.022L16.9562 20.1442C19.3606 20.1442 21.2483 20.6426 22.6192 21.6395C24.0124 22.6131 24.7091 23.9926 24.7091 25.7776C24.7091 27.5626 24.2034 29.0348 23.1922 30.1939C22.2035 31.3299 20.8775 32.1761 19.2146 32.7324C17.5517 33.2656 15.709 33.5322 13.6865 33.5322H0.0683594ZM9.00104 27.7945H14.1247C14.9112 27.7945 15.5517 27.6091 16.0461 27.2381C16.5629 26.8671 16.8213 26.3107 16.8213 25.569C16.8213 25.0358 16.6191 24.6416 16.2146 24.3866C15.8326 24.1084 15.3831 23.9693 14.8663 23.9693H9.20329L10.2482 18.5446H14.8326C15.4393 18.5446 15.9337 18.4635 16.3157 18.3011C16.7202 18.1157 17.0124 17.8723 17.1921 17.5709C17.3719 17.2463 17.4618 16.8638 17.4618 16.4233C17.4618 15.9133 17.2707 15.5424 16.8888 15.3106C16.5292 15.0556 16.0236 14.928 15.3719 14.928H11.4954L9.00104 27.7945ZM26.1396 33.5322L30.8587 9.19031H38.8139L34.0947 33.5322H26.1396ZM43.0479 33.5322L46.5198 15.554H39.6096L40.8568 9.19031H62.6324L61.3851 15.554H54.475L51.003 33.5322H43.0479Z" fill="white"/>
</svg>
