<svg width="22" height="22" viewBox="0 0 22 22" fill="none" xmlns="http://www.w3.org/2000/svg">
<path d="M8.09473 2.13897C9.65295 0.59886 12.1605 0.59886 13.7188 2.13897L19.9004 8.24932C20.6606 9.00075 21.0889 10.0251 21.0889 11.094V16.7894C21.0888 18.9984 19.2979 20.7893 17.0889 20.7894H14.2217V15.5794C14.2214 13.7487 12.737 12.2649 10.9062 12.2649C9.07575 12.2652 7.59204 13.7489 7.5918 15.5794V20.7894H4.72461C2.5155 20.7894 0.724651 18.9985 0.724609 16.7894V11.094C0.724609 10.0251 1.15282 9.00076 1.91309 8.24932L8.09473 2.13897Z" fill="white"/>
<path d="M8.09473 2.13897L7.74325 1.78335L7.74323 1.78337L8.09473 2.13897ZM13.7188 2.13897L14.0702 1.78337L14.0702 1.78335L13.7188 2.13897ZM19.9004 8.24932L19.5489 8.60492L19.5489 8.60492L19.9004 8.24932ZM21.0889 16.7894L21.5889 16.7894V16.7894H21.0889ZM17.0889 20.7894L17.0889 21.2894L17.0889 21.2894L17.0889 20.7894ZM14.2217 20.7894H13.7217V21.2894H14.2217V20.7894ZM14.2217 15.5794L14.7217 15.5794L14.7217 15.5793L14.2217 15.5794ZM10.9062 12.2649L10.9062 11.7649L10.9062 11.7649L10.9062 12.2649ZM7.5918 15.5794L7.0918 15.5793V15.5794H7.5918ZM7.5918 20.7894V21.2894H8.0918V20.7894H7.5918ZM4.72461 20.7894L4.72461 21.2894H4.72461V20.7894ZM0.724609 16.7894L0.224609 16.7894L0.224609 16.7894L0.724609 16.7894ZM1.91309 8.24932L2.26457 8.60493L2.26458 8.60492L1.91309 8.24932ZM8.09473 2.13897L8.44621 2.49458C9.80966 1.14699 12.0038 1.14699 13.3673 2.49458L13.7188 2.13897L14.0702 1.78335C12.3172 0.0507312 9.49625 0.0507313 7.74325 1.78335L8.09473 2.13897ZM13.7188 2.13897L13.3673 2.49457L19.5489 8.60492L19.9004 8.24932L20.2519 7.89372L14.0702 1.78337L13.7188 2.13897ZM19.9004 8.24932L19.5489 8.60492C20.2142 9.26253 20.5889 10.1589 20.5889 11.094H21.0889H21.5889C21.5889 9.89137 21.107 8.73898 20.2519 7.89372L19.9004 8.24932ZM21.0889 11.094H20.5889V16.7894H21.0889H21.5889V11.094H21.0889ZM21.0889 16.7894L20.5889 16.7893C20.5888 18.7222 19.0218 20.2893 17.0888 20.2894L17.0889 20.7894L17.0889 21.2894C19.574 21.2893 21.5888 19.2746 21.5889 16.7894L21.0889 16.7894ZM17.0889 20.7894V20.2894H14.2217V20.7894V21.2894H17.0889V20.7894ZM14.2217 20.7894H14.7217V15.5794H14.2217H13.7217V20.7894H14.2217ZM14.2217 15.5794L14.7217 15.5793C14.7214 13.4725 13.013 11.7649 10.9062 11.7649V12.2649V12.7649C12.461 12.7649 13.7215 14.025 13.7217 15.5795L14.2217 15.5794ZM10.9062 12.2649L10.9062 11.7649C8.7996 11.7652 7.09208 13.4727 7.0918 15.5793L7.5918 15.5794L8.0918 15.5795C8.09201 14.0251 9.3519 12.7652 10.9063 12.7649L10.9062 12.2649ZM7.5918 15.5794H7.0918V20.7894H7.5918H8.0918V15.5794H7.5918ZM7.5918 20.7894V20.2894H4.72461V20.7894V21.2894H7.5918V20.7894ZM4.72461 20.7894L4.72461 20.2894C2.79165 20.2894 1.22465 18.7223 1.22461 16.7893L0.724609 16.7894L0.224609 16.7894C0.224657 19.2746 2.23934 21.2894 4.72461 21.2894L4.72461 20.7894ZM0.724609 16.7894H1.22461V11.094H0.724609H0.224609V16.7894H0.724609ZM0.724609 11.094H1.22461C1.22461 10.1588 1.59924 9.26254 2.26457 8.60493L1.91309 8.24932L1.5616 7.89371C0.706398 8.73899 0.224609 9.89134 0.224609 11.094H0.724609ZM1.91309 8.24932L2.26458 8.60492L8.44622 2.49457L8.09473 2.13897L7.74323 1.78337L1.56159 7.89372L1.91309 8.24932Z" fill="white"/>
</svg>
