<svg width="20" height="20" viewBox="0 0 20 20" fill="none" xmlns="http://www.w3.org/2000/svg">
<path d="M2.58051 3.38574C6.02127 -0.0548099 11.5998 -0.0548914 15.0405 3.38574C18.3266 6.67202 18.471 11.9058 15.4799 15.3672C15.4866 15.3734 15.4939 15.3792 15.5004 15.3857L18.8129 18.6982C19.1055 18.9912 19.1057 19.467 18.8129 19.7598C18.5202 20.0522 18.0452 20.052 17.7524 19.7598L14.4399 16.4473C14.4296 16.437 14.4201 16.4257 14.4106 16.415C10.9495 19.2727 5.81901 19.0841 2.58051 15.8457C-0.860169 12.4049 -0.860169 6.8265 2.58051 3.38574ZM13.9799 4.44629C11.125 1.59144 6.49603 1.59152 3.64105 4.44629C0.786164 7.30126 0.786164 11.9302 3.64105 14.7852C6.49603 17.64 11.125 17.64 13.9799 14.7852C16.8347 11.9302 16.8347 7.30122 13.9799 4.44629Z" fill="#A9A9A9"/>
</svg>
