<svg width="22" height="22" viewBox="0 0 22 22" fill="none" xmlns="http://www.w3.org/2000/svg">
<path fill-rule="evenodd" clip-rule="evenodd" d="M0.725098 16.7895V11.0941C0.725098 10.0251 1.15297 9.00062 1.91326 8.24917L8.0953 2.13901C9.65353 0.598906 12.1608 0.598905 13.719 2.13901L19.901 8.24917C20.6613 9.00062 21.0892 10.0251 21.0892 11.0941V16.7895C21.0892 18.9987 19.2983 20.7895 17.0892 20.7895H14.2223V15.5801C14.2223 13.7492 12.7381 12.265 10.9072 12.265C9.07634 12.265 7.59213 13.7492 7.59213 15.5801V20.7895H4.7251C2.51596 20.7895 0.725098 18.9987 0.725098 16.7895Z" fill="white"/>
<path d="M1.91326 8.24917L2.26474 8.60479H2.26474L1.91326 8.24917ZM8.0953 2.13901L7.74382 1.7834L8.0953 2.13901ZM13.719 2.13901L14.0705 1.7834V1.7834L13.719 2.13901ZM19.901 8.24917L19.5495 8.60479V8.60479L19.901 8.24917ZM14.2223 20.7895H13.7223V21.2895H14.2223V20.7895ZM7.59213 20.7895V21.2895H8.09213V20.7895H7.59213ZM0.225098 11.0941V16.7895H1.2251V11.0941H0.225098ZM1.56178 7.89356C0.706457 8.73893 0.225098 9.8915 0.225098 11.0941H1.2251C1.2251 10.1587 1.59949 9.2623 2.26474 8.60479L1.56178 7.89356ZM7.74382 1.7834L1.56178 7.89356L2.26474 8.60479L8.44678 2.49463L7.74382 1.7834ZM14.0705 1.7834C12.3175 0.0507761 9.49682 0.050778 7.74382 1.7834L8.44678 2.49463C9.81023 1.14703 12.004 1.14703 13.3675 2.49463L14.0705 1.7834ZM20.2525 7.89356L14.0705 1.7834L13.3675 2.49463L19.5495 8.60479L20.2525 7.89356ZM21.5892 11.0941C21.5892 9.89149 21.1078 8.73893 20.2525 7.89356L19.5495 8.60479C20.2148 9.2623 20.5892 10.1587 20.5892 11.0941H21.5892ZM21.5892 16.7895V11.0941H20.5892V16.7895H21.5892ZM17.0892 21.2895C19.5745 21.2895 21.5892 19.2748 21.5892 16.7895H20.5892C20.5892 18.7225 19.0222 20.2895 17.0892 20.2895V21.2895ZM14.2223 21.2895H17.0892V20.2895H14.2223V21.2895ZM13.7223 15.5801V20.7895H14.7223V15.5801H13.7223ZM10.9072 12.765C12.4619 12.765 13.7223 14.0254 13.7223 15.5801H14.7223C14.7223 13.4731 13.0142 11.765 10.9072 11.765V12.765ZM8.09213 15.5801C8.09213 14.0254 9.35249 12.765 10.9072 12.765V11.765C8.8002 11.765 7.09213 13.4731 7.09213 15.5801H8.09213ZM8.09213 20.7895V15.5801H7.09213V20.7895H8.09213ZM4.7251 21.2895H7.59213V20.2895H4.7251V21.2895ZM0.225098 16.7895C0.225098 19.2748 2.23982 21.2895 4.7251 21.2895V20.2895C2.7921 20.2895 1.2251 18.7225 1.2251 16.7895H0.225098Z" fill="white"/>
</svg>
