<svg width="178" height="44" viewBox="0 0 178 44" fill="none" xmlns="http://www.w3.org/2000/svg">
<path d="M76.25 33.8105C74.0253 33.8105 72.1039 33.2888 70.4859 32.2456C68.8679 31.1791 67.6207 29.7534 66.7443 27.9684C65.8904 26.1834 65.4634 24.2012 65.4634 22.022C65.4634 19.8428 65.8904 17.8606 66.7443 16.0756C67.6207 14.2905 68.8679 12.8764 70.4859 11.8332C72.1039 10.7667 74.0253 10.2336 76.25 10.2336C77.9354 10.2336 79.4523 10.5465 80.8006 11.1725C82.1489 11.7752 83.295 12.6098 84.2389 13.6762C85.1827 14.7426 85.8906 15.9829 86.3625 17.397H83.6995C83.1377 15.9829 82.2501 14.8585 81.0366 14.0239C79.8231 13.1894 78.295 12.7721 76.4523 12.7721C74.6545 12.7721 73.1151 13.1894 71.8342 14.0239C70.5758 14.8353 69.6207 15.9365 68.969 17.3275C68.3174 18.7185 67.9915 20.2833 67.9915 22.022C67.9915 23.7375 68.3174 25.3023 68.969 26.7165C69.6207 28.1075 70.5758 29.2203 71.8342 30.0548C73.1151 30.8662 74.6545 31.2719 76.4523 31.2719C78.295 31.2719 79.8231 30.8546 81.0366 30.0201C82.2501 29.1855 83.1377 28.0612 83.6995 26.647H86.3625C85.8906 28.0379 85.1827 29.2783 84.2389 30.3678C83.295 31.4343 82.1489 32.2804 80.8006 32.9063C79.4523 33.509 77.9354 33.8105 76.25 33.8105ZM90.1522 33.5323V10.5117H92.6804V20.7354H105.658V10.5117H108.186V33.5323H105.658V23.2739H92.6804V33.5323H90.1522ZM111.027 33.5323L120.499 10.5117H123.667L133.139 33.5323H130.341L127.611 26.8556H116.555L113.824 33.5323H111.027ZM117.532 24.4562H126.633L122.083 13.2241L117.532 24.4562ZM139.527 33.5323V12.9807H131.741V10.5117H149.842V12.9807H142.055V33.5323H139.527Z" fill="white"/>
<path d="M0.0673828 33.5323L4.78653 9.19032H17.2923C20.1012 9.19032 22.2137 9.70035 23.6294 10.7204C25.0452 11.7173 25.753 13.143 25.753 14.9976C25.753 16.5045 25.326 17.7795 24.4721 18.8228C23.6406 19.866 22.4833 20.6658 21.0002 21.2222C19.5396 21.7553 17.8541 22.022 15.944 22.022L16.9552 20.1442C19.3597 20.1442 21.2473 20.6426 22.6182 21.6395C24.0114 22.6132 24.7081 23.9926 24.7081 25.7776C24.7081 27.5626 24.2025 29.0349 23.1912 30.1939C22.2025 31.33 20.8765 32.1761 19.2136 32.7325C17.5508 33.2656 15.708 33.5323 13.6855 33.5323H0.0673828ZM9.00006 27.7945H14.1237C14.9102 27.7945 15.5507 27.6091 16.0451 27.2381C16.5619 26.8671 16.8204 26.3108 16.8204 25.569C16.8204 25.0358 16.6181 24.6416 16.2136 24.3866C15.8316 24.1085 15.3821 23.9694 14.8653 23.9694H9.20231L10.2473 18.5446H14.8316C15.4383 18.5446 15.9327 18.4635 16.3147 18.3012C16.7192 18.1158 17.0114 17.8723 17.1912 17.5709C17.3709 17.2464 17.4608 16.8638 17.4608 16.4234C17.4608 15.9133 17.2698 15.5424 16.8878 15.3106C16.5282 15.0556 16.0226 14.9281 15.3709 14.9281H11.4945L9.00006 27.7945ZM26.1386 33.5323L30.8578 9.19032H38.8129L34.0938 33.5323H26.1386ZM43.0469 33.5323L46.5189 15.554H39.6087L40.8559 9.19032H62.6314L61.3842 15.554H54.474L51.002 33.5323H43.0469Z" fill="white"/>
</svg>
