<svg width="19" height="19" viewBox="0 0 19 19" fill="none" xmlns="http://www.w3.org/2000/svg">
<path fill-rule="evenodd" clip-rule="evenodd" d="M8.2171 17.3532C8.2171 17.7674 8.55289 18.1032 8.9671 18.1032C9.38131 18.1032 9.7171 17.7674 9.7171 17.3532V10.25H17.8486C18.2628 10.25 18.5986 9.91419 18.5986 9.49997C18.5986 9.08576 18.2628 8.74997 17.8486 8.74997H9.7171V1.64679C9.7171 1.23258 9.38131 0.89679 8.9671 0.89679C8.55289 0.89679 8.2171 1.23258 8.2171 1.64679V8.74997H1.07227C0.658052 8.74997 0.322266 9.08576 0.322266 9.49997C0.322266 9.91419 0.658052 10.25 1.07227 10.25H8.2171V17.3532Z" fill="#BCB8B8"/>
</svg>
