<svg width="20" height="20" viewBox="0 0 20 20" fill="none" xmlns="http://www.w3.org/2000/svg">
<path fill-rule="evenodd" clip-rule="evenodd" d="M14.3482 14.7849C11.4932 17.6399 6.86439 17.6399 4.0094 14.7849C1.15442 11.9299 1.15442 7.30104 4.0094 4.44605C6.86439 1.59106 11.4932 1.59106 14.3482 4.44605C17.2032 7.30104 17.2032 11.9299 14.3482 14.7849ZM2.94874 15.8455C-0.492029 12.4048 -0.492029 6.82616 2.94874 3.38539C6.38952 -0.0553839 11.9681 -0.0553837 15.4089 3.38539C18.695 6.67155 18.8427 11.9077 15.8519 15.3691C15.8577 15.3746 15.8634 15.3801 15.8691 15.3858L19.1813 18.698C19.4742 18.9909 19.4742 19.4658 19.1813 19.7587C18.8884 20.0515 18.4135 20.0515 18.1206 19.7587L14.8084 16.4465C14.7988 16.4368 14.7895 16.427 14.7804 16.4169C11.3193 19.2744 6.18714 19.0839 2.94874 15.8455Z" fill="#A9A9A9"/>
</svg>
