<svg width="19" height="20" viewBox="0 0 19 20" fill="none" xmlns="http://www.w3.org/2000/svg">
<path fill-rule="evenodd" clip-rule="evenodd" d="M10.0002 18.7C10.0002 18.9761 9.77639 19.2 9.50024 19.2C9.2241 19.2 9.00024 18.9761 9.00024 18.7V16.9974C8.32028 16.9656 7.64398 16.8376 6.99349 16.6133L6.45371 17.8817C6.34558 18.1358 6.05194 18.2541 5.79785 18.146C5.54376 18.0378 5.42544 17.7442 5.53357 17.4901L6.07325 16.222C5.56003 15.9598 5.07177 15.6317 4.62103 15.2378L3.64383 16.2121C3.44828 16.4071 3.1317 16.4066 2.93673 16.211C2.74176 16.0155 2.74224 15.6989 2.93779 15.5039L3.915 14.5296C3.49878 14.0504 3.15668 13.5291 2.88871 12.9808L1.61136 13.498C1.3554 13.6016 1.06389 13.4782 0.960247 13.2222C0.856605 12.9663 0.980078 12.6747 1.23603 12.5711L2.51376 12.0537C2.33152 11.493 2.22011 10.9142 2.17953 10.3315L0.799907 10.3318C0.523764 10.3318 0.299861 10.108 0.299805 9.83186C0.299748 9.55572 0.52356 9.33181 0.799703 9.33176L2.17932 9.33148C2.22057 8.73569 2.33584 8.14408 2.52514 7.57158L1.33412 7.06442C1.08006 6.95624 0.961796 6.66257 1.06998 6.4085C1.17817 6.15444 1.47183 6.03618 1.7259 6.14436L2.90486 6.64639C3.16072 6.12957 3.48267 5.63717 3.87073 5.18181L2.95623 4.26418C2.7613 4.06858 2.76184 3.752 2.95743 3.55707C3.15303 3.36214 3.46961 3.36268 3.66454 3.55828L4.57019 4.46703C5.0446 4.04455 5.56163 3.69593 6.10638 3.42119L5.621 2.22181C5.51741 1.96583 5.64094 1.67434 5.89692 1.57075C6.1529 1.46716 6.44438 1.59069 6.54797 1.84667L7.02872 3.03461C7.73344 2.79579 8.4679 2.66959 9.20406 2.656V0.921673C9.20406 0.645531 9.42792 0.421673 9.70406 0.421673C9.9802 0.421673 10.2041 0.645531 10.2041 0.921673V2.707C10.7044 2.76753 11.1996 2.8807 11.6807 3.0465L12.2203 1.77849C12.3285 1.5244 12.6221 1.40608 12.8762 1.51421C13.1303 1.62235 13.2486 1.91599 13.1405 2.17008L12.601 3.43779C13.1143 3.70002 13.6027 4.02812 14.0535 4.42208L15.0303 3.44818C15.2259 3.25321 15.5425 3.25369 15.7374 3.44925C15.9324 3.6448 15.9319 3.96138 15.7364 4.15635L14.7595 5.13025C15.1758 5.60954 15.518 6.13091 15.786 6.67937L17.0628 6.16237C17.3187 6.05873 17.6103 6.1822 17.7139 6.43815C17.8175 6.69411 17.6941 6.98562 17.4381 7.08926L16.1609 7.60643C16.3431 8.16714 16.4545 8.74585 16.4951 9.32857L17.8747 9.32829C18.1508 9.32823 18.3747 9.55204 18.3748 9.82819C18.3748 10.1043 18.151 10.3282 17.8749 10.3283L16.4953 10.3286C16.4499 10.9844 16.3148 11.6351 16.09 12.2609L17.2688 12.7628C17.5229 12.871 17.6412 13.1647 17.533 13.4187C17.4248 13.6728 17.1311 13.7911 16.8771 13.6829L15.6868 13.176C15.418 13.6856 15.0837 14.1695 14.6839 14.6155L15.5894 15.5242C15.7843 15.7198 15.7838 16.0363 15.5882 16.2313C15.3926 16.4262 15.076 16.4257 14.8811 16.2301L13.9667 15.3126C13.4824 15.7224 12.9567 16.0578 12.4044 16.3188L12.8851 17.5064C12.9887 17.7624 12.8651 18.0539 12.6091 18.1575C12.3532 18.2611 12.0617 18.1375 11.9581 17.8816L11.4725 16.6817C10.9915 16.8312 10.4978 16.9288 10.0002 16.9747V18.7ZM5.32433 5.81701C7.54064 3.60069 11.134 3.60069 13.3503 5.81701C15.5666 8.03332 15.5666 11.6267 13.3503 13.843C11.134 16.0593 7.54064 16.0593 5.32433 13.843C3.10801 11.6267 3.10801 8.03332 5.32433 5.81701Z" fill="#BDBDBD"/>
</svg>
