<svg width="26" height="23" viewBox="0 0 26 23" fill="none" xmlns="http://www.w3.org/2000/svg">
<path fill-rule="evenodd" clip-rule="evenodd" d="M25.6377 0.254143C25.6809 0.29338 25.7195 0.337728 25.7527 0.386424C25.7748 0.418951 25.7942 0.452919 25.8108 0.487973C25.8356 0.540367 25.854 0.595188 25.866 0.651259C25.9021 0.819695 25.8801 0.999402 25.7962 1.15842C25.7886 1.17281 25.7805 1.18696 25.772 1.20085L13.197 22.0864C13.0368 22.3524 12.7294 22.4922 12.4237 22.4381C12.118 22.384 11.8773 22.1471 11.8182 21.8423L9.4843 9.80455L0.256162 1.73013C0.0225215 1.5257 -0.0610195 1.19845 0.046043 0.907047C0.153104 0.615642 0.428634 0.420317 0.739052 0.415771L25.1155 0.0588151C25.1318 0.0584481 25.1481 0.0586109 25.1643 0.0592997C25.3364 0.0666012 25.5049 0.133012 25.6377 0.254143ZM10.2623 8.49218L22.2497 1.60094L2.71339 1.88702L10.2623 8.49218ZM11.0099 9.7926L12.9191 19.6399L22.9973 2.90137L11.0099 9.7926Z" fill="#858585"/>
</svg>
