<svg width="20" height="17" viewBox="0 0 20 17" fill="none" xmlns="http://www.w3.org/2000/svg">
<path d="M5.92308 7.875L6.55007 7.46344L5.8977 6.4696L5.28164 7.48634L5.92308 7.875ZM9.61539 13.5L8.9884 13.9116L9.6489 14.9178L10.2611 13.8815L9.61539 13.5ZM17.7264 0.813144C17.6232 0.411992 17.2143 0.170452 16.8131 0.27365L10.276 1.95535C9.87484 2.05855 9.6333 2.46741 9.7365 2.86856C9.83969 3.26971 10.2486 3.51125 10.6497 3.40806L16.4605 1.91321L17.9554 7.72401C18.0586 8.12516 18.4674 8.3667 18.8686 8.2635C19.2697 8.16031 19.5113 7.75145 19.4081 7.3503L17.7264 0.813144ZM1.64144 16.3887L6.56452 8.26366L5.28164 7.48634L0.358561 15.6113L1.64144 16.3887ZM5.29609 8.28656L8.9884 13.9116L10.2424 13.0884L6.55007 7.46344L5.29609 8.28656ZM10.2611 13.8815L17.6457 1.38148L16.3543 0.61852L8.96965 13.1185L10.2611 13.8815Z" fill="#FF0037"/>
</svg>
